<svg height="511pt" viewBox="0 0 511 511.99971" width="511pt" xmlns="http://www.w3.org/2000/svg"><path d="m432.875 79.316406c-96.820312-96.820312-255.257812-96.820312-352.078125 0-82.179687 82.179688-94.59375 208.742188-37.269531 304.347656 2.847656 4.746094 3.601562 10.460938 1.980468 15.757813l-27.386718 89.488281c-.96875 3.164063 1.992187 6.125 5.160156 5.15625l89.488281-27.382812c5.292969-1.621094 11.007813-.867188 15.757813 1.980468 95.605468 57.324219 222.167968 44.910157 304.347656-37.269531 96.820312-96.820312 96.820312-255.257812 0-352.078125zm0 0" fill="#e4eaf8"/><path d="m75.527344 399.421875c1.621094-5.292969.867187-11.007813-1.980469-15.757813-57.324219-95.605468-44.910156-222.167968 37.269531-304.347656 44.613282-44.613281 102.308594-68.648437 161.027344-72.148437-68.71875-4.097657-138.839844 19.941406-191.046875 72.148437-82.179687 82.179688-94.59375 208.742188-37.269531 304.347656 2.847656 4.75 3.601562 10.464844 1.980468 15.757813l-27.386718 89.488281c-.96875 3.164063 1.992187 6.125 5.160156 5.15625l25.6875-7.859375zm0 0" fill="#d8dce5"/><path d="m92.210938 253.304688c-.375 11.597656 9.007812 21.230468 20.550781 21.230468h.039062v.007813c-.554687 0-1.125 0-1.714843 0-11.203126.007812-20.277344 9.097656-20.269532 20.300781.007813 11.207031 9.097656 20.222656 20.300782 20.214844h84.40625c2.351562 0 4.015624 2.296875 3.285156 4.53125l-7.398438 22.582031c-6.296875 19.21875-5.175781 32.304687-5.175781 54.8125 0 13.242187 10.734375 23.972656 23.972656 23.972656 12.027344 0 22.191407-8.910156 23.765625-20.832031 1.742188-13.191406 2.917969-36.652344 24.726563-57.652344l15.394531-14.820312c8.574219-8.257813 20.015625-12.871094 31.917969-12.871094h17.492187v-133.066406c-5.5 0-13.824218.003906-13.832031.003906-29.386719.019531-26.703125-29.085938-63.25-29.050781h-124.394531c-11.1875 0-20.261719 9.070312-20.261719 20.261719 0 11.1875 9.070313 20.261718 20.261719 20.261718h-3.566406c-11.015626 0-20.414063 8.5625-20.78125 19.566406-.386719 11.507813 8.828124 20.957032 20.25 20.957032h-4.929688c-11.019531 0-20.429688 8.574218-20.789062 19.589844zm0 0" fill="#f5c5a9"/><path d="m214 396.984375c0-22.507813-1.117188-35.59375 5.175781-54.8125l7.398438-22.582031c.734375-2.234375-.933594-4.53125-3.285157-4.53125-3.644531 0-14.734374 0-27.769531 0 2.355469 0 4.019531 2.296875 3.285157 4.53125l-7.394532 22.582031c-6.296875 19.21875-5.175781 32.304687-5.175781 54.8125 0 13.242187 10.730469 23.972656 23.972656 23.972656 5.144531 0 9.941407-1.640625 13.875-4.4375-6.097656-4.347656-10.082031-11.472656-10.082031-19.535156zm0 0" fill="#eebda4"/><path d="m138.953125 190.039062c-5.660156-3.59375-9.417969-9.910156-9.417969-17.109374 0-11.191407 9.070313-20.261719 20.261719-20.261719h-27.769531c-11.191406 0-20.261719 9.070312-20.261719 20.261719 0 11.1875 9.070313 20.261718 20.261719 20.261718h-3.566406c-11.015626 0-20.414063 8.5625-20.78125 19.566406-.386719 11.507813 8.828124 20.957032 20.25 20.957032h-4.929688c-11.019531 0-20.429688 8.574218-20.789062 19.589844-.375 11.597656 9.007812 21.230468 20.550781 21.230468h.039062v.003906c-.554687 0-1.125.003907-1.714843.003907-11.203126.007812-20.277344 9.097656-20.269532 20.300781.007813 11.207031 9.097656 20.21875 20.300782 20.210938h27.769531c-11.203125.007812-20.292969-9.003907-20.300781-20.210938-.003907-7.644531 4.226562-14.285156 10.46875-17.746094.738281-.410156 1.183593-1.203125 1.183593-2.046875v-1.996093c0-.773438-.371093-1.511719-1.015625-1.941407-5.738281-3.804687-9.480468-10.40625-9.242187-17.808593.285156-8.753907 6.289062-15.945313 14.269531-18.535157.976562-.316406 1.640625-1.21875 1.640625-2.246093 0-.792969-.386719-1.542969-1.054687-1.96875-5.832032-3.710938-9.636719-10.320313-9.386719-17.796876.277343-8.300781 5.695312-15.203124 13.066406-18.097656.90625-.355468 1.503906-1.222656 1.503906-2.195312v-.453125c-.003906-.792969-.394531-1.546875-1.066406-1.972657zm0 0" fill="#eebda4"/><path d="m331.984375 326.738281h76.738281c5.789063 0 10.484375-4.695312 10.484375-10.484375v-138.617187c0-5.789063-4.695312-10.484375-10.484375-10.484375h-76.738281c-5.789063 0-10.484375 4.695312-10.484375 10.484375v138.617187c0 5.792969 4.695312 10.484375 10.484375 10.484375zm0 0" fill="#00aaf0"/><path d="m351.519531 316.253906v-138.617187c0-5.792969 4.695313-10.484375 10.484375-10.484375h-30.019531c-5.792969 0-10.484375 4.695312-10.484375 10.484375v138.617187c0 5.789063 4.691406 10.484375 10.484375 10.484375h30.019531c-5.789062 0-10.484375-4.691406-10.484375-10.484375zm0 0" fill="#039add"/><path d="m178.523438 397.175781c0 17.355469 14.121093 31.476563 31.480468 31.476563 15.730469 0 29.148438-11.757813 31.207032-27.355469 1.6875-12.816406 2.71875-34.191406 22.492187-53.226563l15.390625-14.824218c7.214844-6.945313 16.703125-10.769532 26.714844-10.769532h9.046875c2.488281 6.957032 9.125 11.957032 16.925781 11.957032h76.738281c9.921875 0 17.992188-8.070313 17.992188-17.988282v-138.617187c0-9.921875-8.070313-17.992187-17.992188-17.992187h-76.738281c-8.746094 0-16.046875 6.28125-17.652344 14.566406h-4.664062c-.011719 0-.019532 0-.019532 0-10.84375 0-15.722656-4.710938-22.46875-11.234375-8.214843-7.9375-18.4375-17.816407-40.6875-17.816407-.023437 0-.046874 0-.070312 0h-124.394531c-15.308594 0-27.765625 12.457032-27.765625 27.769532 0 7.101562 2.679687 13.589844 7.082031 18.503906-6.53125 4.914062-10.878906 12.535156-11.164063 21.074219-.234374 6.96875 2.074219 13.589843 6.527344 18.851562-7 4.886719-11.707031 12.796875-11.996094 21.703125-.246093 7.71875 2.601563 15.09375 8.230469 20.746094-5.898437 5.105469-9.636719 12.644531-9.628906 21.042969.011719 15.285156 12.476563 27.710937 27.785156 27.710937h.015625 78.824219l-5.660156 17.273438c-6.710938 20.496094-5.550781 34.484375-5.550781 57.148437zm150.28125-219.347656c0-1.644531 1.335937-2.980469 2.976562-2.980469h76.738281c1.644531 0 2.980469 1.335938 2.980469 2.980469v138.617187c0 1.644532-1.335938 2.980469-2.980469 2.980469h-76.738281c-1.640625 0-2.976562-1.335937-2.976562-2.980469 0-6.359374 0-132.078124 0-138.617187zm-217.894532 129.914063h-.011718c-7.042969 0-12.773438-5.699219-12.78125-12.710938-.003907-7.050781 5.726562-12.789062 12.769531-12.792969 20.503906-.011719-26.113281-.007812 33.941406-.007812 4.144531 0 7.503906-3.359375 7.503906-7.507813 0-4.144531-3.359375-7.503906-7.503906-7.503906h-32.230469c-.003906 0-.011718 0-.011718 0-.015626 0-.023438 0-.023438 0-7.332031 0-13.289062-6.125-13.050781-13.480469.21875-6.796875 6.179687-12.328125 13.285156-12.328125h4.929687c16.960938 0 2.285157-.007812 27.097657-.007812 4.148437 0 7.507812-3.363282 7.507812-7.507813s-3.359375-7.503906-7.507812-7.503906c-6.726563 0 15.597656.007813-27.097657.007813-7.191406 0-12.992187-5.933594-12.75-13.199219.226563-6.789063 6.183594-12.3125 13.28125-12.3125h3.566407c.058593 0 .117187-.007813.175781-.011719h22.824219c4.148437 0 7.507812-3.359375 7.507812-7.503906 0-4.144532-3.359375-7.503906-7.507812-7.503906h-23.171875c-6.953125-.09375-12.582032-5.773438-12.582032-12.75 0-7.03125 5.722657-12.753907 12.753907-12.753907h124.402343.054688c16.191406 0 22.710938 6.300781 30.261719 13.597657 7.496093 7.246093 15.988281 15.453124 32.890625 15.453124h.035156 4.324219v118.054688h-7.984375c-13.914063 0-27.101563 5.3125-37.125 14.964844l-15.394532 14.824218c-23.632812 22.753907-25.105468 48.0625-26.960937 62.074219-1.074219 8.160157-8.09375 14.3125-16.324219 14.3125-9.082031 0-16.46875-7.386719-16.46875-16.46875 0-22.273437-1.070312-34.542969 4.804688-52.472656l7.398437-22.582031c2.316407-7.074219-2.96875-14.375-10.417969-14.375h-84.410156zm0 0"/><path d="m359.089844 212.335938h22.121094c4.144531 0 7.503906-3.363282 7.503906-7.507813s-3.359375-7.503906-7.503906-7.503906h-22.121094c-4.144532 0-7.503906 3.359375-7.503906 7.503906s3.359374 7.507813 7.503906 7.507813zm0 0"/><path d="m273.628906 14.992188c120.300782 8.371093 215.203125 103.449218 223.558594 223.558593.277344 3.960938 3.570312 6.984375 7.480469 6.984375.175781 0 .351562-.003906.527343-.015625 4.136719-.289062 7.253907-3.875 6.964844-8.007812-8.890625-127.777344-109.921875-228.617188-237.488281-237.4921878-4.121094-.2890622-7.722656 2.8320308-8.007813 6.9648438-.289062 4.132813 2.832032 7.71875 6.964844 8.007813zm0 0"/><path d="m38.128906 397.417969-27.386718 89.488281c-2.722657 8.902344 5.628906 17.253906 14.53125 14.527344l89.488281-27.382813c3.21875-.984375 6.753906-.53125 9.707031 1.238281 162.859375 97.65625 374.335938-9.726562 387.695312-201.714843.289063-4.132813-2.832031-7.71875-6.964843-8.007813-4.15625-.289062-7.722657 2.832032-8.007813 6.964844-12.453125 178.972656-209.71875 283-365.003906 189.886719-6.59375-3.953125-14.542969-4.945313-21.816406-2.722657l-83.414063 25.527344 25.527344-83.414062c2.226563-7.269532 1.234375-15.222656-2.71875-21.816406-93.042969-155.164063 10.734375-352.539063 189.882813-365 4.132812-.289063 7.253906-3.875 6.964843-8.007813-.289062-4.136719-3.878906-7.25-8.007812-6.9648438-92.480469 6.4296878-173.890625 61.9218748-213.347657 145.0507808-12.0625 25.417969-19.824218 52.574219-23.066406 80.714844-6.488281 56.28125 5.832032 113.789063 34.699219 161.929688 1.769531 2.953125 2.222656 6.488281 1.238281 9.703125zm0 0"/></svg>