<svg id="Capa_1" enable-background="new 0 0 512 512" height="512" viewBox="0 0 512 512" width="512" xmlns="http://www.w3.org/2000/svg"><g><g><path d="m466 393.247c22.214-36.871 35-80.064 35-126.247 0-135.31-109.69-245-245-245s-245 109.69-245 245c0 46.183 12.786 89.376 35 126.247z" fill="#3b3868"/></g><g><g><path d="m417.106 160.383c-8.083 0-15.556 2.599-21.643 6.996-.285-21.956-14.636-40.508-34.459-47.069 6.836-11.803 10.768-25.497 10.768-40.118 0-44.289-35.903-80.192-80.192-80.192-41.573 0-75.754 31.637-79.789 72.148-6.34-1.564-12.962-2.409-19.785-2.409-45.473 0-82.336 36.863-82.336 82.336 0 3.997.3 7.924.851 11.769-4.749-2.216-10.042-3.46-15.627-3.46-20.442 0-37.014 16.572-37.014 37.014s16.572 37.014 37.014 37.014h322.213c20.442 0 37.014-16.572 37.014-37.014s-16.573-37.015-37.015-37.015z" fill="#e9efff"/></g><g><g><path d="m256 172.9c0-6.773 1.111-13.282 3.132-19.376-28.118-12.461-47.744-40.596-47.744-73.332 0-2.715.139-5.398.402-8.043-6.34-1.564-12.962-2.409-19.785-2.409-45.473 0-82.336 36.863-82.336 82.336 0 3.997.3 7.924.851 11.769-4.749-2.216-10.042-3.46-15.627-3.46-20.442 0-37.014 16.572-37.014 37.014s16.572 37.014 37.014 37.014h222.617c-33.971-.003-61.51-27.542-61.51-61.513z" fill="#d3dcfb"/></g></g></g><g><path d="m106 460.711 300-56.22v-111.278c0-11.046-8.954-20-20-20h-160l-15.442-46.325c-2.722-8.167-10.365-13.675-18.974-13.675h-125.584c-11.046 0-20 8.954-20 20v160.034c15.686 26.037 36.082 48.914 60 67.464z" fill="#ffb332"/></g><g><path d="m406 303.213h-280c-27.57 0-50 22.43-50 50v79.963c9.219 9.979 19.25 19.197 30 27.535l300-56.219z" fill="#ff9100"/></g><g><g><path d="m206.699 273.213h9.301v82.893h80v-82.893h9.302c16.249 0 26.141-17.888 17.504-31.651l-49.302-78.554c-8.1-12.907-26.907-12.906-35.007 0l-49.301 78.554c-8.639 13.763 1.254 31.651 17.503 31.651z" fill="#ff4155"/></g></g><g><path d="m256 356.106h-40v-82.893c22.091 0 40 17.909 40 40z" fill="#e80054"/></g><g><path d="m466 353.213c0-11.046-8.954-20-20-20h-320c-11.046 0-20 8.954-20 20v107.498c41.45 32.144 93.486 51.289 150 51.289 89.127 0 167.13-47.596 210-118.753z" fill="#ffdd40"/></g><g><path d="m186 362.417v-9.204c0-11.046 8.954-20 20-20h-80c-11.046 0-20 8.954-20 20v107.498c41.45 32.144 93.486 51.289 150 51.289 15.248 0 30.17-1.395 44.646-4.06-65.811-15.684-114.646-74.994-114.646-145.523z" fill="#ffc839"/></g></g></svg>